<svg aria-hidden="true" style="position:absolute;width:0;height:0" xmlns="http://www.w3.org/2000/svg" overflow="hidden"><defs><symbol id="icon-clients" viewBox="0 0 87 32"><path fill="var(--color1, #969696)" d="M0 0h86.808v32H0V0z"/></symbol><symbol id="icon-phone" viewBox="0 0 32 32"><path d="M23.2 29.333A20.559 20.559 0 012.667 8.8 6.133 6.133 0 018.8 2.667c.344-.003.688.029 1.027.093.327.048.649.129.96.24a1.338 1.338 0 01.867 1l1.827 8a1.34 1.34 0 01-.346 1.226c-.173.187-.187.2-1.827 1.053a13.214 13.214 0 006.493 6.52c.867-1.653.88-1.667 1.067-1.84a1.34 1.34 0 011.226-.346l8 1.827a1.34 1.34 0 01.96.866 5.752 5.752 0 01.333 1.986 6.133 6.133 0 01-6.187 6.04zm-14.4-24a3.482 3.482 0 00-3.466 3.466 17.883 17.883 0 0017.867 17.867 3.478 3.478 0 003.466-3.466v-.44l-6.187-1.427-.387.733c-.6 1.16-1.04 2-2.16 1.547a15.797 15.797 0 01-9.573-9.614c-.48-1.04.427-1.52 1.573-2.12l.733-.36-1.427-6.187h-.44z"/></symbol><symbol id="icon-log-in" viewBox="0 0 32 32"><path d="M12 2.667h12c1.467 0 2.667 1.2 2.667 2.667v21.333c0 1.467-1.2 2.667-2.667 2.667H12a2.675 2.675 0 01-2.667-2.667v-2.666H12v2.666h12V5.334H12v2.667H9.333V5.334c0-1.467 1.2-2.667 2.667-2.667z"/><path d="M13.453 20.787l1.88 1.88L22 16l-6.667-6.667-1.88 1.88 3.44 3.453H4v2.667h12.893l-3.44 3.453z"/></symbol><symbol id="icon-search" viewBox="0 0 32 32"><path d="M28 25.333l-6.872-6.872a9.337 9.337 0 00-1.901-12.366 9.337 9.337 0 00-12.495.636 9.332 9.332 0 0011.73 14.396l6.872 6.872 2.667-2.667zm-21.333-12c0-3.676 2.991-6.667 6.667-6.667s6.667 2.991 6.667 6.667c0 3.676-2.991 6.667-6.667 6.667s-6.667-2.991-6.667-6.667z"/></symbol><symbol id="icon-bx-cart" viewBox="0 0 32 32"><path d="M29.096 9.908A1.335 1.335 0 0028 9.334H9.777L8.238 5.641a2.659 2.659 0 00-2.462-1.64H2.665v2.667h3.111l6.325 15.18a1.33 1.33 0 001.23.82h10.667c.556 0 1.053-.345 1.249-.864l4-10.667a1.325 1.325 0 00-.154-1.228zM23.076 20h-8.853l-3.333-8h15.187l-3 8zM14 28a2 2 0 10.001-3.999A2 2 0 0014 28zM23.333 28a2 2 0 100-4 2 2 0 000 4z"/></symbol></defs></svg>